<?xml version="1.0" encoding="UTF-8" standalone="no"?>
<!-- Created with Inkscape (http://www.inkscape.org/) -->

<svg
   width="224.93111mm"
   height="224.93112mm"
   viewBox="0 0 224.93111 224.93112"
   version="1.1"
   id="svg5"
   inkscape:version="1.1.2 (1:1.1+202202050950+0a00cf5339)"
   sodipodi:docname="bitcoin.svg"
   xmlns:inkscape="http://www.inkscape.org/namespaces/inkscape"
   xmlns:sodipodi="http://sodipodi.sourceforge.net/DTD/sodipodi-0.dtd"
   xmlns="http://www.w3.org/2000/svg"
   xmlns:svg="http://www.w3.org/2000/svg">
  <sodipodi:namedview
     id="namedview7"
     pagecolor="#ffffff"
     bordercolor="#666666"
     borderopacity="1.0"
     inkscape:pageshadow="2"
     inkscape:pageopacity="0.0"
     inkscape:pagecheckerboard="0"
     inkscape:document-units="mm"
     showgrid="false"
     inkscape:zoom="0.5"
     inkscape:cx="-310"
     inkscape:cy="757"
     inkscape:window-width="1876"
     inkscape:window-height="1007"
     inkscape:window-x="20"
     inkscape:window-y="49"
     inkscape:window-maximized="1"
     inkscape:current-layer="layer1" />
  <defs
     id="defs2" />
  <g
     inkscape:label="Layer 1"
     inkscape:groupmode="layer"
     id="layer1"
     transform="translate(-267.19597,35.17805)">
    <path
       d="m 106.5173,145.65533 a 3.175,3.175 0 0 0 -3.175,3.175 3.175,3.175 0 0 0 3.175,3.175 3.175,3.175 0 0 0 3.175,-3.175 3.175,3.175 0 0 0 -3.175,-3.175 z m 1.32556,1.25518 c 0.18204,0 0.33073,0.14843 0.33073,0.33047 a 0.33072917,0.33072917 0 0 1 -0.66093,0.0148 l -0.68712,-0.14472 -0.21166,0.99139 c 0.4826,0.0185 0.92075,0.16722 1.23666,0.3937 0.0815,-0.0817 0.19314,-0.12991 0.31935,-0.12991 0.25612,0 0.46408,0.20796 0.46408,0.46408 0,0.18944 -0.11509,0.35269 -0.26723,0.42704 a 0.82311875,0.82311875 0 0 1 0.0111,0.13758 c 0,0.71279 -0.82814,1.28852 -1.85314,1.28852 -1.025,0 -1.85314,-0.57573 -1.85314,-1.28852 0,-0.0484 0.004,-0.0968 0.0114,-0.14129 a 0.46249167,0.46249167 0 0 1 -0.27492,-0.42332 c 0,-0.25612 0.20797,-0.46408 0.46408,-0.46408 0.12251,0 0.2376,0.0519 0.31936,0.12965 0.31935,-0.23363 0.76147,-0.37836 1.25518,-0.39344 l 0.23415,-1.10649 a 0.0904875,0.0904875 0 0 1 0.037,-0.0521 0.09260417,0.09260417 0 0 1 0.063,-0.0111 l 0.76888,0.16325 a 0.32120417,0.32120417 0 0 1 0.29315,-0.18548 z m -2.05316,1.91982 c -0.1823,0 -0.33073,0.1487 -0.33073,0.33073 0,0.18177 0.14843,0.3302 0.33073,0.3302 0.18177,0 0.3302,-0.14843 0.3302,-0.33047 0,-0.18203 -0.14843,-0.33046 -0.33047,-0.33046 z m 1.45521,0 c -0.18177,0 -0.3302,0.14843 -0.3302,0.33073 0,0.18177 0.14843,0.3302 0.33046,0.3302 0.18203,0 0.33047,-0.14843 0.33047,-0.33047 0,-0.18176 -0.1487,-0.33046 -0.33073,-0.33046 z m -1.44622,1.05569 a 0.08651875,0.08651875 0 0 0 -0.0611,0.0249 0.0873125,0.0873125 0 0 0 0,0.1225 c 0.22278,0.22278 0.65723,0.24157 0.78344,0.24157 0.1262,0 0.55694,-0.0148 0.78343,-0.24157 a 0.09551458,0.09551458 0 0 0 0.008,-0.1225 0.0873125,0.0873125 0 0 0 -0.12277,0 c -0.14472,0.14102 -0.44555,0.19314 -0.66463,0.19314 -0.21907,0 -0.52361,-0.0519 -0.66463,-0.19314 a 0.08625417,0.08625417 0 0 0 -0.0614,-0.0251 z"
       id="path894"
       style="fill:#464658;fill-opacity:1;stroke-width:0.264583" />
    <path
       d="m -48.919571,139.04183 c -4.3845,-2.0514 -9.07261,-3.54227 -13.97391,-4.39118 -0.60194,1.08828 -1.30517,2.55204 -1.79003,3.71645 -5.2102,-0.78355 -10.37249,-0.78355 -15.486885,0 -0.48476,-1.16441 -1.20396,-2.62817 -1.81129,-3.71645 -4.90659,0.84891 -9.60009,2.34526 -13.98458,4.40205 -8.843584,13.3638 -11.240934,26.39566 -10.042254,39.24248 5.86552,4.38023 11.549924,7.04109 17.138394,8.78228 1.37982,-1.89903 2.61044,-3.91775 3.67059,-6.04528 -2.01909,-0.76721 -3.95294,-1.71399 -5.7802,-2.81313 0.48476,-0.35914 0.95894,-0.73462 1.41705,-1.12096 11.145,5.2128 23.254325,5.2128 34.266175,0 0.4635,0.38634 0.93759,0.76182 1.41706,1.12096 -1.83265,1.10453 -3.77179,2.0513 -5.79088,2.8186 1.06014,2.12206 2.28547,4.14625 3.67058,6.04519 5.59386,-1.74119 11.28353,-4.40195 17.14906,-8.78766 1.40647,-14.89274 -2.40264,-27.80492 -10.06888,-39.25335 z m -34.761615,31.35267 c -3.34562,0 -6.08929,-3.12333 -6.08929,-6.92678 0,-3.80346 2.68509,-6.93218 6.08929,-6.93218 3.4043,0 6.147885,3.12325 6.089295,6.93218 0.005,3.80345 -2.684995,6.92678 -6.089295,6.92678 z m 22.503175,0 c -3.34561,0 -6.08929,-3.12333 -6.08929,-6.92678 0,-3.80346 2.685,-6.93218 6.08929,-6.93218 3.40421,0 6.14788,3.12325 6.0893,6.93218 0,3.80345 -2.68509,6.92678 -6.0893,6.92678 z"
       fill="#5865f2"
       fill-rule="nonzero"
       id="path903"
       style="fill:#464658;fill-opacity:1;stroke-width:0.264583" />
    <g
       id="g1411"
       transform="matrix(0.26458333,0,0,0.26458333,57.833967,51.728247)"
       style="fill:#464658;fill-opacity:1">
      <g
         id="XMLID_822_"
         style="fill:#464658;fill-opacity:1">
	<path
   id="XMLID_823_"
   d="M 297.917,64.645 C 286.727,51.343 266.067,45.917 226.611,45.917 H 83.386 c -40.359,0 -61.369,5.776 -72.517,19.938 C 0,79.663 0,100.008 0,128.166 v 53.669 c 0,54.551 12.896,82.248 83.386,82.248 h 143.226 c 34.216,0 53.176,-4.788 65.442,-16.527 C 304.633,235.518 310,215.863 310,181.835 v -53.669 c 0,-29.695 -0.841,-50.16 -12.083,-63.521 z m -98.896,97.765 -65.038,33.991 c -1.454,0.76 -3.044,1.137 -4.632,1.137 -1.798,0 -3.592,-0.484 -5.181,-1.446 -2.992,-1.813 -4.819,-5.056 -4.819,-8.554 v -67.764 c 0,-3.492 1.822,-6.732 4.808,-8.546 2.987,-1.814 6.702,-1.938 9.801,-0.328 l 65.038,33.772 c 3.309,1.718 5.387,5.134 5.392,8.861 0.004,3.73 -2.065,7.151 -5.369,8.877 z"
   style="fill:#464658;fill-opacity:1" />

</g>
      <g
         id="g1359"
         style="fill:#464658;fill-opacity:1">
</g>
      <g
         id="g1361"
         style="fill:#464658;fill-opacity:1">
</g>
      <g
         id="g1363"
         style="fill:#464658;fill-opacity:1">
</g>
      <g
         id="g1365"
         style="fill:#464658;fill-opacity:1">
</g>
      <g
         id="g1367"
         style="fill:#464658;fill-opacity:1">
</g>
      <g
         id="g1369"
         style="fill:#464658;fill-opacity:1">
</g>
      <g
         id="g1371"
         style="fill:#464658;fill-opacity:1">
</g>
      <g
         id="g1373"
         style="fill:#464658;fill-opacity:1">
</g>
      <g
         id="g1375"
         style="fill:#464658;fill-opacity:1">
</g>
      <g
         id="g1377"
         style="fill:#464658;fill-opacity:1">
</g>
      <g
         id="g1379"
         style="fill:#464658;fill-opacity:1">
</g>
      <g
         id="g1381"
         style="fill:#464658;fill-opacity:1">
</g>
      <g
         id="g1383"
         style="fill:#464658;fill-opacity:1">
</g>
      <g
         id="g1385"
         style="fill:#464658;fill-opacity:1">
</g>
      <g
         id="g1387"
         style="fill:#464658;fill-opacity:1">
</g>
    </g>
    <path
       fill="currentColor"
       d="m 378.86778,-35.160412 q -25.13542,0.26459 -47.49271,10.98021 -22.35729,10.71563 -38.23229,29.5010399 -16.40417,19.8437501 -22.48958,44.7145901 -7.40834,29.63333 1.05833,58.737502 8.20208,28.31041 29.36875,48.94791 21.69583,21.16667 51.32917,28.575 29.63333,7.40834 58.73749,-1.05833 28.31041,-8.46667 48.94791,-29.36875 21.16667,-21.69583 28.575,-51.32917 7.40834,-29.633332 -1.05833,-59.002082 -8.46667,-28.04583 -29.36875,-48.6833301 -21.69583,-21.4312499 -51.32917,-28.5749999 -14.0229,-3.70417 -28.04582,-3.43959 z m -3.70417,39.1583399 12.17084,3.175 -5.02709,19.8437501 10.05417,2.11666 4.7625,-19.5791601 12.43541,2.9104101 -5.02709,20.37292 q 12.96459,4.49792 19.05,10.58333 7.14375,7.40834 5.55625,17.72709 -2.11666,15.08125 -15.61041,18.25625 8.73125,4.49791 11.64166,11.37708 3.43959,7.67292 -0.26458,18.520832 -4.7625,13.22917 -16.40417,16.93334 -9.78957,2.91041 -27.25207,-0.26459 l -5.02708,20.37292 -12.43542,-3.175 5.02708,-20.10833 -9.78958,-2.38125 -5.02708,20.10833 -12.43542,-2.91042 5.29167,-20.6375 -24.87084,-6.35 6.08542,-14.022912 4.49792,1.32291 q 4.49791,1.05834 4.49791,0.79375 3.96875,1.058342 5.55625,-2.91041 l 8.20209,-32.27917 1.32291,0.26458 -1.32291,-0.26458 5.55625,-23.28333 q 0.52916,-5.55625 -5.55625,-7.14375 l -8.99584,-2.11667 v 0 l 3.175,-13.22917 17.19792,4.23334 h -0.26458 l 7.9375,2.11666 z m 3.96875,37.5708301 -6.08541,24.60625 1.85208,0.52917 q 10.84792,2.91041 16.93333,2.64583 10.84791,0 12.96458,-8.46667 2.11666,-8.46666 -7.14374,-13.49375 -5.02709,-2.91041 -16.13959,-5.29166 z m -9.26041,37.04167 -6.87917,26.987502 2.38125,0.79375 q 13.22917,3.43958 20.37292,3.43958 12.96458,0 15.34583,-9.26042 2.38124,-9.260412 -8.99583,-15.081252 -6.08542,-3.175 -19.31459,-6.35 z"
       id="path1455"
       style="fill:#464658;fill-opacity:1;stroke-width:0.264583" />
  </g>
</svg>
