<?xml version="1.0" encoding="UTF-8" standalone="no"?>
<!-- Created with Inkscape (http://www.inkscape.org/) -->

<svg
   width="6.3499999mm"
   height="6.3499999mm"
   viewBox="0 0 6.3499999 6.3499999"
   version="1.1"
   id="svg5"
   inkscape:version="1.1.2 (1:1.1+202202050950+0a00cf5339)"
   sodipodi:docname="reddit.svg"
   xmlns:inkscape="http://www.inkscape.org/namespaces/inkscape"
   xmlns:sodipodi="http://sodipodi.sourceforge.net/DTD/sodipodi-0.dtd"
   xmlns="http://www.w3.org/2000/svg"
   xmlns:svg="http://www.w3.org/2000/svg">
  <sodipodi:namedview
     id="namedview7"
     pagecolor="#ffffff"
     bordercolor="#666666"
     borderopacity="1.0"
     inkscape:pageshadow="2"
     inkscape:pageopacity="0.0"
     inkscape:pagecheckerboard="0"
     inkscape:document-units="mm"
     showgrid="false"
     inkscape:zoom="2"
     inkscape:cx="0.5"
     inkscape:cy="-34.75"
     inkscape:window-width="1876"
     inkscape:window-height="1007"
     inkscape:window-x="20"
     inkscape:window-y="49"
     inkscape:window-maximized="1"
     inkscape:current-layer="layer1" />
  <defs
     id="defs2" />
  <g
     inkscape:label="Layer 1"
     inkscape:groupmode="layer"
     id="layer1"
     transform="translate(-103.3423,-145.65533)">
    <path
       d="m 106.5173,145.65533 a 3.175,3.175 0 0 0 -3.175,3.175 3.175,3.175 0 0 0 3.175,3.175 3.175,3.175 0 0 0 3.175,-3.175 3.175,3.175 0 0 0 -3.175,-3.175 z m 1.32556,1.25518 c 0.18204,0 0.33073,0.14843 0.33073,0.33047 a 0.33072917,0.33072917 0 0 1 -0.66093,0.0148 l -0.68712,-0.14472 -0.21166,0.99139 c 0.4826,0.0185 0.92075,0.16722 1.23666,0.3937 0.0815,-0.0817 0.19314,-0.12991 0.31935,-0.12991 0.25612,0 0.46408,0.20796 0.46408,0.46408 0,0.18944 -0.11509,0.35269 -0.26723,0.42704 a 0.82311875,0.82311875 0 0 1 0.0111,0.13758 c 0,0.71279 -0.82814,1.28852 -1.85314,1.28852 -1.025,0 -1.85314,-0.57573 -1.85314,-1.28852 0,-0.0484 0.004,-0.0968 0.0114,-0.14129 a 0.46249167,0.46249167 0 0 1 -0.27492,-0.42332 c 0,-0.25612 0.20797,-0.46408 0.46408,-0.46408 0.12251,0 0.2376,0.0519 0.31936,0.12965 0.31935,-0.23363 0.76147,-0.37836 1.25518,-0.39344 l 0.23415,-1.10649 a 0.0904875,0.0904875 0 0 1 0.037,-0.0521 0.09260417,0.09260417 0 0 1 0.063,-0.0111 l 0.76888,0.16325 a 0.32120417,0.32120417 0 0 1 0.29315,-0.18548 z m -2.05316,1.91982 c -0.1823,0 -0.33073,0.1487 -0.33073,0.33073 0,0.18177 0.14843,0.3302 0.33073,0.3302 0.18177,0 0.3302,-0.14843 0.3302,-0.33047 0,-0.18203 -0.14843,-0.33046 -0.33047,-0.33046 z m 1.45521,0 c -0.18177,0 -0.3302,0.14843 -0.3302,0.33073 0,0.18177 0.14843,0.3302 0.33046,0.3302 0.18203,0 0.33047,-0.14843 0.33047,-0.33047 0,-0.18176 -0.1487,-0.33046 -0.33073,-0.33046 z m -1.44622,1.05569 a 0.08651875,0.08651875 0 0 0 -0.0611,0.0249 0.0873125,0.0873125 0 0 0 0,0.1225 c 0.22278,0.22278 0.65723,0.24157 0.78344,0.24157 0.1262,0 0.55694,-0.0148 0.78343,-0.24157 a 0.09551458,0.09551458 0 0 0 0.008,-0.1225 0.0873125,0.0873125 0 0 0 -0.12277,0 c -0.14472,0.14102 -0.44555,0.19314 -0.66463,0.19314 -0.21907,0 -0.52361,-0.0519 -0.66463,-0.19314 a 0.08625417,0.08625417 0 0 0 -0.0614,-0.0251 z"
       id="path894"
       style="fill:#464658;fill-opacity:1;stroke-width:0.264583" />
    <path
       d="m -48.919571,139.04183 c -4.3845,-2.0514 -9.07261,-3.54227 -13.97391,-4.39118 -0.60194,1.08828 -1.30517,2.55204 -1.79003,3.71645 -5.2102,-0.78355 -10.37249,-0.78355 -15.486885,0 -0.48476,-1.16441 -1.20396,-2.62817 -1.81129,-3.71645 -4.90659,0.84891 -9.60009,2.34526 -13.98458,4.40205 -8.843584,13.3638 -11.240934,26.39566 -10.042254,39.24248 5.86552,4.38023 11.549924,7.04109 17.138394,8.78228 1.37982,-1.89903 2.61044,-3.91775 3.67059,-6.04528 -2.01909,-0.76721 -3.95294,-1.71399 -5.7802,-2.81313 0.48476,-0.35914 0.95894,-0.73462 1.41705,-1.12096 11.145,5.2128 23.254325,5.2128 34.266175,0 0.4635,0.38634 0.93759,0.76182 1.41706,1.12096 -1.83265,1.10453 -3.77179,2.0513 -5.79088,2.8186 1.06014,2.12206 2.28547,4.14625 3.67058,6.04519 5.59386,-1.74119 11.28353,-4.40195 17.14906,-8.78766 1.40647,-14.89274 -2.40264,-27.80492 -10.06888,-39.25335 z m -34.761615,31.35267 c -3.34562,0 -6.08929,-3.12333 -6.08929,-6.92678 0,-3.80346 2.68509,-6.93218 6.08929,-6.93218 3.4043,0 6.147885,3.12325 6.089295,6.93218 0.005,3.80345 -2.684995,6.92678 -6.089295,6.92678 z m 22.503175,0 c -3.34561,0 -6.08929,-3.12333 -6.08929,-6.92678 0,-3.80346 2.685,-6.93218 6.08929,-6.93218 3.40421,0 6.14788,3.12325 6.0893,6.93218 0,3.80345 -2.68509,6.92678 -6.0893,6.92678 z"
       fill="#5865f2"
       fill-rule="nonzero"
       id="path903"
       style="fill:#464658;fill-opacity:1;stroke-width:0.264583" />
  </g>
</svg>
